<svg width="40" height="40" viewBox="0 0 40 40" fill="none" xmlns="http://www.w3.org/2000/svg">
  <path
    d="M7.15 0.148604C7.40463 0.271003 7.6195 0.462808 7.76988 0.701935C7.92026 0.941061 8.00003 1.21779 8 1.50024C8 3.1598 8.624 4.11555 9.406 5.27924L9.464 5.36322C10.128 6.35095 11 7.64461 11 9.49812C11 11.3896 10.046 13.0572 8.592 14.0469C8.974 14.3668 9.312 14.7607 9.604 15.2326C10.556 16.7722 11 19.1256 11 22.5047C11 25.9277 10.54 30.0387 9.79 33.3218C9.418 34.9533 8.956 36.4589 8.406 37.5886C8.14634 38.1507 7.80237 38.6699 7.386 39.1282C6.974 39.5501 6.34 40 5.5 40C4.66 40 4.026 39.5501 3.616 39.1282C3.19842 38.6708 2.85433 38.1515 2.596 37.5886C2.044 36.4569 1.582 34.9533 1.21 33.3198C0.429895 29.7662 0.0243478 26.1407 1.92701e-06 22.5027C1.92701e-06 19.1236 0.444002 16.7722 1.396 15.2326C1.6676 14.7857 2.00929 14.3854 2.408 14.0469C1.66555 13.543 1.05788 12.8649 0.638106 12.0719C0.218336 11.279 -0.000749611 10.3953 1.92701e-06 9.49812C1.92701e-06 8.76231 1.72853e-06 7.49665 0.766002 5.86308C1.516 4.26351 2.942 2.426 5.562 0.328556C5.78282 0.151971 6.04906 0.0413822 6.33003 0.00954265C6.611 -0.0222969 6.89525 0.0259099 7.15 0.148604ZM3 9.49612C3 10.159 3.26339 10.7967 3.73223 11.2654C4.20108 11.7341 4.83696 11.9975 5.5 11.9975C6.16304 11.9975 6.79893 11.7341 7.26777 11.2654C7.73661 10.7967 8 10.161 8 9.49812C8 8.62035 7.63 8.01251 6.916 6.95079L6.892 6.9148C6.434 6.23498 5.892 5.4292 5.508 4.39547C4.422 5.49918 3.822 6.41494 3.484 7.13475C3 8.16647 3 8.90227 3 9.49612ZM3.948 16.8062C3.452 17.61 3 19.2575 3 22.5027C3 25.7038 3.436 29.5908 4.134 32.652C4.486 34.1915 4.886 35.4412 5.292 36.273C5.366 36.427 5.436 36.5549 5.5 36.6629C5.564 36.5549 5.634 36.427 5.708 36.273C6.114 35.4412 6.514 34.1895 6.866 32.652C7.566 29.5928 8 25.7058 8 22.5027C8 19.2575 7.548 17.61 7.052 16.8062C6.90241 16.5356 6.67631 16.3151 6.402 16.1723C6.11797 16.0487 5.80952 15.9912 5.5 16.0044C5.1 16.0044 4.814 16.0664 4.598 16.1723C4.32369 16.3151 4.09759 16.5356 3.948 16.8062ZM16 25.8298C14.9404 25.6521 13.9097 25.3319 12.936 24.878C12.9945 23.744 13.0112 22.6082 12.986 21.4729C13.888 22.0788 14.906 22.5246 16 22.7726V16.9961C16 16.2007 16.3161 15.4378 16.8787 14.8754C17.4413 14.3129 18.2044 13.9969 19 13.9969H27C26.9999 12.3188 26.5304 10.6741 25.6444 9.24866C24.7585 7.82325 23.4915 6.67396 21.9865 5.93062C20.4815 5.18729 18.7986 4.87954 17.1279 5.04215C15.4572 5.20476 13.8653 5.83124 12.532 6.85082C12.132 5.74512 11.562 4.89934 11.166 4.3115L11.086 4.19153C12.8829 2.92516 14.9933 2.17664 17.1867 2.02768C19.3802 1.87872 21.5724 2.33505 23.5241 3.34686C25.4758 4.35866 27.112 5.88705 28.254 7.76518C29.396 9.64331 30 11.799 30 13.9969H37C37.7956 13.9969 38.5587 14.3129 39.1213 14.8754C39.6839 15.4378 40 16.2007 40 16.9961V34.9913C40 35.7868 39.6839 36.5496 39.1213 37.1121C38.5587 37.6745 37.7956 37.9905 37 37.9905H19C18.2044 37.9905 17.4413 37.6745 16.8787 37.1121C16.3161 36.5496 16 35.7868 16 34.9913V25.8298ZM19 25.9557V34.9933H37V16.9981H29.62C28.9969 19.4075 27.6402 21.5638 25.7376 23.1685C23.835 24.7733 21.4805 25.7473 19 25.9557ZM26.488 16.9981H19V22.9425C20.6804 22.7542 22.2738 22.0968 23.598 21.0456C24.9222 19.9943 25.9238 18.5917 26.488 16.9981Z"
    fill="white" />
</svg>
  