<svg width="627" height="391" viewBox="0 0 627 391" fill="none" xmlns="http://www.w3.org/2000/svg">
  <path d="M341 293H484V153" stroke="#654B97" stroke-width="6" stroke-linecap="round" />
  <path
    d="M508.211 72.3914H264.789C231.216 72.3914 204 98.7339 204 131.229C204 163.724 231.216 190.067 264.789 190.067H508.211C541.784 190.067 569.001 163.724 569.001 131.229C569.001 98.7339 541.784 72.3914 508.211 72.3914Z"
    fill="#A1D6EB" />
  <path
    d="M296.858 128.606C330.72 128.606 358.17 99.914 358.17 64.5212C358.17 29.1284 330.72 0.43689 296.858 0.43689C262.997 0.43689 235.547 29.1284 235.547 64.5212C235.547 99.914 262.997 128.606 296.858 128.606Z"
    fill="#A1D6EB" />
  <path
    d="M386.86 128.606C416.563 128.606 440.642 103.438 440.642 72.3912C440.642 41.3449 416.563 16.1769 386.86 16.1769C357.157 16.1769 333.078 41.3449 333.078 72.3912C333.078 103.438 357.157 128.606 386.86 128.606Z"
    fill="#A1D6EB" />
  <path
    d="M460.723 148.843C490.426 148.843 514.505 123.675 514.505 92.6283C514.505 61.5819 490.426 36.4139 460.723 36.4139C431.02 36.4139 406.941 61.5819 406.941 92.6283C406.941 123.675 431.02 148.843 460.723 148.843Z"
    fill="#A1D6EB" />
  <path
    d="M0 162.933C0 152.808 8.48037 144.6 18.9414 144.6H322.114C332.576 144.6 341.055 152.808 341.055 162.933V344.089C341.055 354.215 332.576 362.423 322.114 362.423H18.9414C8.48037 362.423 0 354.215 0 344.089V162.933Z"
    fill="#C1A0F3" />
  <path
    d="M0 162.933C0 152.808 8.48037 144.6 18.9414 144.6H322.114C332.576 144.6 341.055 152.808 341.055 162.933V335.839H0V162.933Z"
    fill="#654B97" />
  <path
    d="M327.965 153.329H15.1434C12.2143 153.329 9.83984 155.627 9.83984 158.462V321.581C9.83984 324.416 12.2143 326.715 15.1434 326.715H327.965C330.895 326.715 333.269 324.416 333.269 321.581V158.462C333.269 155.627 330.895 153.329 327.965 153.329Z"
    fill="#C1A0F3" />
  <path
    d="M150.878 224.746H33.5888C30.6597 224.746 28.2852 227.044 28.2852 229.879V305.314C28.2852 308.149 30.6597 310.447 33.5888 310.447H150.878C153.807 310.447 156.181 308.149 156.181 305.314V229.879C156.181 227.044 153.807 224.746 150.878 224.746Z"
    fill="#FBFBFB" />
  <path
    d="M308.288 169.993H178.292C175.363 169.993 172.988 172.291 172.988 175.126V305.314C172.988 308.149 175.363 310.447 178.292 310.447H308.288C311.217 310.447 313.592 308.149 313.592 305.314V175.126C313.592 172.291 311.217 169.993 308.288 169.993Z"
    fill="#FBFBFB" />
  <path
    d="M52.2643 260.058C59.1693 260.058 64.767 254.64 64.767 247.957C64.767 241.273 59.1693 235.855 52.2643 235.855C45.3593 235.855 39.7617 241.273 39.7617 247.957C39.7617 254.64 45.3593 260.058 52.2643 260.058Z"
    fill="#CDCDCD" />
  <path
    d="M167.452 352.107C170.056 352.107 172.167 350.064 172.167 347.544C172.167 345.024 170.056 342.981 167.452 342.981C164.849 342.981 162.738 345.024 162.738 347.544C162.738 350.064 164.849 352.107 167.452 352.107Z"
    fill="white" />
  <path
    d="M136.094 267.199H42.6312C41.0464 267.199 39.7617 268.443 39.7617 269.977C39.7617 271.511 41.0464 272.754 42.6312 272.754H136.094C137.678 272.754 138.963 271.511 138.963 269.977C138.963 268.443 137.678 267.199 136.094 267.199Z"
    fill="#CDCDCD" />
  <path
    d="M284.895 240.22H191.432C189.847 240.22 188.562 241.464 188.562 242.997C188.562 244.531 189.847 245.775 191.432 245.775H284.895C286.479 245.775 287.764 244.531 287.764 242.997C287.764 241.464 286.479 240.22 284.895 240.22Z"
    fill="#CDCDCD" />
  <path
    d="M124.617 177.531H31.1546C29.5699 177.531 28.2852 178.775 28.2852 180.308C28.2852 181.842 29.5699 183.086 31.1546 183.086H124.617C126.202 183.086 127.487 181.842 127.487 180.308C127.487 178.775 126.202 177.531 124.617 177.531Z"
    fill="#FBFBFB" />
  <path
    d="M136.094 279.896H42.6312C41.0464 279.896 39.7617 281.14 39.7617 282.674C39.7617 284.208 41.0464 285.451 42.6312 285.451H136.094C137.678 285.451 138.963 284.208 138.963 282.674C138.963 281.14 137.678 279.896 136.094 279.896Z"
    fill="#CDCDCD" />
  <path
    d="M284.895 252.916H191.432C189.847 252.916 188.562 254.16 188.562 255.694C188.562 257.227 189.847 258.471 191.432 258.471H284.895C286.479 258.471 287.764 257.227 287.764 255.694C287.764 254.16 286.479 252.916 284.895 252.916Z"
    fill="#CDCDCD" />
  <path
    d="M284.895 266.803H191.432C189.847 266.803 188.562 268.046 188.562 269.58C188.562 271.114 189.847 272.357 191.432 272.357H284.895C286.479 272.357 287.764 271.114 287.764 269.58C287.764 268.046 286.479 266.803 284.895 266.803Z"
    fill="#CDCDCD" />
  <path
    d="M124.617 190.228H31.1546C29.5699 190.228 28.2852 191.471 28.2852 193.005C28.2852 194.539 29.5699 195.783 31.1546 195.783H124.617C126.202 195.783 127.487 194.539 127.487 193.005C127.487 191.471 126.202 190.228 124.617 190.228Z"
    fill="#FBFBFB" />
  <path
    d="M88.1326 292.593H42.6312C41.0464 292.593 39.7617 293.836 39.7617 295.37C39.7617 296.904 41.0464 298.147 42.6312 298.147H88.1326C89.7173 298.147 91.002 296.904 91.002 295.37C91.002 293.836 89.7173 292.593 88.1326 292.593Z"
    fill="#CDCDCD" />
  <path
    d="M236.933 279.5H191.432C189.847 279.5 188.562 280.743 188.562 282.277C188.562 283.811 189.847 285.054 191.432 285.054H236.933C238.518 285.054 239.803 283.811 239.803 282.277C239.803 280.743 238.518 279.5 236.933 279.5Z"
    fill="#CDCDCD" />
  <path
    d="M76.656 202.924H31.1546C29.5699 202.924 28.2852 204.168 28.2852 205.702C28.2852 207.235 29.5699 208.479 31.1546 208.479H76.656C78.2408 208.479 79.5255 207.235 79.5255 205.702C79.5255 204.168 78.2408 202.924 76.656 202.924Z"
    fill="#FBFBFB" />
  <path d="M195.944 362.423H139.375V379.88H195.944V362.423Z" fill="#654B97" />
  <path
    d="M108.629 386.897C108.629 383.021 111.875 379.88 115.878 379.88H219.028C223.031 379.88 226.276 383.021 226.276 386.897C226.276 389.157 224.384 390.99 222.048 390.99H112.857C110.522 390.99 108.629 389.157 108.629 386.897Z"
    fill="#3C2C5C" />
  <path
    d="M193.059 212.898V206.848L218.061 196.192V203.153L200.943 209.805L201.174 209.444V210.303L200.943 209.942L218.061 216.594V223.555L193.059 212.898ZM241.412 187.1L229.692 229.244H223.175L234.895 187.1H241.412ZM271.534 212.898L246.531 223.555V216.594L263.649 209.942L263.418 210.303V209.444L263.649 209.805L246.531 203.153V196.192L271.534 206.848V212.898Z"
    fill="#654B97" />
  <path
    d="M514.374 236H387.622C384.155 236 381.344 238.721 381.344 242.077V356.324C381.344 359.68 384.155 362.401 387.622 362.401H514.374C517.842 362.401 520.653 359.68 520.653 356.324V242.077C520.653 238.721 517.842 236 514.374 236Z"
    fill="#C1A0F3" stroke="#654B97" stroke-width="6" />
  <path fill-rule="evenodd" clip-rule="evenodd"
    d="M439.477 288.257L448.8 286.035C450.659 289.744 451.937 291.164 454.605 292.699C459.387 292.444 461.223 291.204 463.929 288.257L472.372 292.699C470.102 297.05 469.987 299.38 472.372 303.294C475.598 305.554 477.705 305.958 481.696 306.028L483.631 315.084C479.057 316.202 477.536 317.48 476.42 320.723C476.33 325.398 477.535 327.245 480.641 329.951L475.539 338.153C471.78 335.915 469.762 335.699 466.04 337.128C462.248 340.303 461.905 342.407 463.05 346.696L453.551 349.601C452.96 345.38 451.874 343.502 447.217 341.913C442.453 341.621 440.452 342.749 437.895 346.696L429.977 341.913C432.506 337.701 432.806 335.432 429.977 331.66C427.093 328.486 425.031 327.768 420.478 328.583L418.367 319.698C422.697 318.516 424.638 317.375 425.932 313.205C425.851 309.055 424.789 307.189 421.358 304.661L425.932 297.313C429.991 299.443 432.253 299.374 436.311 297.313C439.242 294.624 439.832 292.59 439.477 288.257ZM451.087 333.54C460.025 333.54 467.272 326.5 467.272 317.819C467.272 309.136 460.025 302.098 451.087 302.098C442.149 302.098 434.904 309.136 434.904 317.819C434.904 326.5 442.149 333.54 451.087 333.54Z"
    fill="#654B97" />
  <path
    d="M518.89 259.706H382.849C381.828 259.706 381 260.507 381 261.495C381 262.484 381.828 263.285 382.849 263.285H518.89C519.911 263.285 520.738 262.484 520.738 261.495C520.738 260.507 519.911 259.706 518.89 259.706Z"
    fill="#654B97" />
  <path
    d="M424.148 281.178H394.95C393.929 281.178 393.102 281.979 393.102 282.968C393.102 283.956 393.929 284.757 394.95 284.757H424.148C425.169 284.757 425.997 283.956 425.997 282.968C425.997 281.979 425.169 281.178 424.148 281.178Z"
    fill="#654B97" />
  <path
    d="M446.78 271.209H394.95C393.929 271.209 393.102 272.01 393.102 272.998C393.102 273.986 393.929 274.787 394.95 274.787H446.78C447.801 274.787 448.628 273.986 448.628 272.998C448.628 272.01 447.801 271.209 446.78 271.209Z"
    fill="#654B97" />
  <path
    d="M412.306 291.148H394.95C393.929 291.148 393.102 291.949 393.102 292.938C393.102 293.926 393.929 294.727 394.95 294.727H412.306C413.327 294.727 414.154 293.926 414.154 292.938C414.154 291.949 413.327 291.148 412.306 291.148Z"
    fill="#654B97" />
  <path
    d="M396.779 249.736H394.95C393.929 249.736 393.102 250.537 393.102 251.526C393.102 252.514 393.929 253.315 394.95 253.315H396.779C397.8 253.315 398.628 252.514 398.628 251.526C398.628 250.537 397.8 249.736 396.779 249.736Z"
    fill="#654B97" />
  <path
    d="M404.412 249.736H402.583C401.562 249.736 400.734 250.537 400.734 251.526C400.734 252.514 401.562 253.315 402.583 253.315H404.412C405.433 253.315 406.261 252.514 406.261 251.526C406.261 250.537 405.433 249.736 404.412 249.736Z"
    fill="#654B97" />
  <path
    d="M412.045 249.736H410.216C409.195 249.736 408.367 250.537 408.367 251.526C408.367 252.514 409.195 253.315 410.216 253.315H412.045C413.066 253.315 413.894 252.514 413.894 251.526C413.894 250.537 413.066 249.736 412.045 249.736Z"
    fill="#654B97" />
  <path
    d="M508.36 347.897H491.005C489.984 347.897 489.156 348.698 489.156 349.687C489.156 350.675 489.984 351.476 491.005 351.476H508.36C509.381 351.476 510.209 350.675 510.209 349.687C510.209 348.698 509.381 347.897 508.36 347.897Z"
    fill="#654B97" />
</svg>
  