<svg width="40" height="40" viewBox="0 0 40 40" fill="none" xmlns="http://www.w3.org/2000/svg">
  <path
    d="M26 30C25.6044 30 25.2178 30.1173 24.8889 30.3371C24.56 30.5568 24.3036 30.8692 24.1522 31.2346C24.0009 31.6001 23.9613 32.0022 24.0384 32.3902C24.1156 32.7781 24.3061 33.1345 24.5858 33.4142C24.8655 33.6939 25.2219 33.8844 25.6098 33.9616C25.9978 34.0387 26.3999 33.9991 26.7654 33.8478C27.1308 33.6964 27.4432 33.44 27.6629 33.1111C27.8827 32.7822 28 32.3956 28 32C28 31.4696 27.7893 30.9609 27.4142 30.5858C27.0391 30.2107 26.5304 30 26 30ZM14 30H8C7.46957 30 6.96086 30.2107 6.58579 30.5858C6.21071 30.9609 6 31.4696 6 32C6 32.5304 6.21071 33.0391 6.58579 33.4142C6.96086 33.7893 7.46957 34 8 34H14C14.5304 34 15.0391 33.7893 15.4142 33.4142C15.7893 33.0391 16 32.5304 16 32C16 31.4696 15.7893 30.9609 15.4142 30.5858C15.0391 30.2107 14.5304 30 14 30ZM32 30C31.6044 30 31.2178 30.1173 30.8889 30.3371C30.56 30.5568 30.3036 30.8692 30.1522 31.2346C30.0009 31.6001 29.9613 32.0022 30.0384 32.3902C30.1156 32.7781 30.3061 33.1345 30.5858 33.4142C30.8655 33.6939 31.2219 33.8844 31.6098 33.9616C31.9978 34.0387 32.3999 33.9991 32.7654 33.8478C33.1308 33.6964 33.4432 33.44 33.6629 33.1111C33.8827 32.7822 34 32.3956 34 32C34 31.4696 33.7893 30.9609 33.4142 30.5858C33.0391 30.2107 32.5304 30 32 30ZM26 18C25.6044 18 25.2178 18.1173 24.8889 18.3371C24.56 18.5568 24.3036 18.8692 24.1522 19.2346C24.0009 19.6001 23.9613 20.0022 24.0384 20.3902C24.1156 20.7781 24.3061 21.1345 24.5858 21.4142C24.8655 21.6939 25.2219 21.8844 25.6098 21.9616C25.9978 22.0387 26.3999 21.9991 26.7654 21.8478C27.1308 21.6964 27.4432 21.44 27.6629 21.1111C27.8827 20.7822 28 20.3956 28 20C28 19.4696 27.7893 18.9609 27.4142 18.5858C27.0391 18.2107 26.5304 18 26 18ZM14 18H8C7.46957 18 6.96086 18.2107 6.58579 18.5858C6.21071 18.9609 6 19.4696 6 20C6 20.5304 6.21071 21.0391 6.58579 21.4142C6.96086 21.7893 7.46957 22 8 22H14C14.5304 22 15.0391 21.7893 15.4142 21.4142C15.7893 21.0391 16 20.5304 16 20C16 19.4696 15.7893 18.9609 15.4142 18.5858C15.0391 18.2107 14.5304 18 14 18ZM32 6C31.6044 6 31.2178 6.1173 30.8889 6.33706C30.56 6.55682 30.3036 6.86918 30.1522 7.23463C30.0009 7.60009 29.9613 8.00222 30.0384 8.39018C30.1156 8.77814 30.3061 9.13451 30.5858 9.41421C30.8655 9.69392 31.2219 9.8844 31.6098 9.96157C31.9978 10.0387 32.3999 9.99913 32.7654 9.84776C33.1308 9.69638 33.4432 9.44004 33.6629 9.11114C33.8827 8.78224 34 8.39556 34 8C34 7.46957 33.7893 6.96086 33.4142 6.58579C33.0391 6.21071 32.5304 6 32 6ZM32 18C31.6044 18 31.2178 18.1173 30.8889 18.3371C30.56 18.5568 30.3036 18.8692 30.1522 19.2346C30.0009 19.6001 29.9613 20.0022 30.0384 20.3902C30.1156 20.7781 30.3061 21.1345 30.5858 21.4142C30.8655 21.6939 31.2219 21.8844 31.6098 21.9616C31.9978 22.0387 32.3999 21.9991 32.7654 21.8478C33.1308 21.6964 33.4432 21.44 33.6629 21.1111C33.8827 20.7822 34 20.3956 34 20C34 19.4696 33.7893 18.9609 33.4142 18.5858C33.0391 18.2107 32.5304 18 32 18ZM40 6C40 4.4087 39.3679 2.88258 38.2426 1.75736C37.1174 0.632141 35.5913 0 34 0H6C4.4087 0 2.88258 0.632141 1.75736 1.75736C0.632141 2.88258 0 4.4087 0 6V10C0.00882122 11.4801 0.564422 12.9047 1.56 14C0.564422 15.0953 0.00882122 16.5199 0 18V22C0.00882122 23.4801 0.564422 24.9047 1.56 26C0.564422 27.0953 0.00882122 28.5199 0 30V34C0 35.5913 0.632141 37.1174 1.75736 38.2426C2.88258 39.3679 4.4087 40 6 40H34C35.5913 40 37.1174 39.3679 38.2426 38.2426C39.3679 37.1174 40 35.5913 40 34V30C39.9912 28.5199 39.4356 27.0953 38.44 26C39.4356 24.9047 39.9912 23.4801 40 22V18C39.9912 16.5199 39.4356 15.0953 38.44 14C39.4356 12.9047 39.9912 11.4801 40 10V6ZM36 34C36 34.5304 35.7893 35.0391 35.4142 35.4142C35.0391 35.7893 34.5304 36 34 36H6C5.46957 36 4.96086 35.7893 4.58579 35.4142C4.21071 35.0391 4 34.5304 4 34V30C4 29.4696 4.21071 28.9609 4.58579 28.5858C4.96086 28.2107 5.46957 28 6 28H34C34.5304 28 35.0391 28.2107 35.4142 28.5858C35.7893 28.9609 36 29.4696 36 30V34ZM36 22C36 22.5304 35.7893 23.0391 35.4142 23.4142C35.0391 23.7893 34.5304 24 34 24H6C5.46957 24 4.96086 23.7893 4.58579 23.4142C4.21071 23.0391 4 22.5304 4 22V18C4 17.4696 4.21071 16.9609 4.58579 16.5858C4.96086 16.2107 5.46957 16 6 16H34C34.5304 16 35.0391 16.2107 35.4142 16.5858C35.7893 16.9609 36 17.4696 36 18V22ZM36 10C36 10.5304 35.7893 11.0391 35.4142 11.4142C35.0391 11.7893 34.5304 12 34 12H6C5.46957 12 4.96086 11.7893 4.58579 11.4142C4.21071 11.0391 4 10.5304 4 10V6C4 5.46957 4.21071 4.96086 4.58579 4.58579C4.96086 4.21071 5.46957 4 6 4H34C34.5304 4 35.0391 4.21071 35.4142 4.58579C35.7893 4.96086 36 5.46957 36 6V10ZM26 6C25.6044 6 25.2178 6.1173 24.8889 6.33706C24.56 6.55682 24.3036 6.86918 24.1522 7.23463C24.0009 7.60009 23.9613 8.00222 24.0384 8.39018C24.1156 8.77814 24.3061 9.13451 24.5858 9.41421C24.8655 9.69392 25.2219 9.8844 25.6098 9.96157C25.9978 10.0387 26.3999 9.99913 26.7654 9.84776C27.1308 9.69638 27.4432 9.44004 27.6629 9.11114C27.8827 8.78224 28 8.39556 28 8C28 7.46957 27.7893 6.96086 27.4142 6.58579C27.0391 6.21071 26.5304 6 26 6ZM14 6H8C7.46957 6 6.96086 6.21071 6.58579 6.58579C6.21071 6.96086 6 7.46957 6 8C6 8.53043 6.21071 9.03914 6.58579 9.41421C6.96086 9.78929 7.46957 10 8 10H14C14.5304 10 15.0391 9.78929 15.4142 9.41421C15.7893 9.03914 16 8.53043 16 8C16 7.46957 15.7893 6.96086 15.4142 6.58579C15.0391 6.21071 14.5304 6 14 6Z"
    fill="white" />
</svg>
  